<?xml version="1.0" standalone="no"?>
<!DOCTYPE svg PUBLIC "-//W3C//DTD SVG 20010904//EN"
 "http://www.w3.org/TR/2001/REC-SVG-20010904/DTD/svg10.dtd">
<svg version="1.0" xmlns="http://www.w3.org/2000/svg"
 width="370.000000pt" height="370.000000pt" viewBox="0 0 370.000000 370.000000"
 preserveAspectRatio="xMidYMid meet">
<metadata>
Created by potrace 1.14, written by Peter Selinger 2001-2017
</metadata>
<g transform="translate(0.000000,370.000000) scale(0.100000,-0.100000)"
fill="#000000" stroke="none">
<path d="M1798 3554 c-2 -1 -19 -4 -39 -7 -46 -6 -53 -10 -132 -80 -35 -30
-95 -60 -107 -52 -13 8 -82 18 -126 18 -62 1 -102 -20 -129 -67 -38 -65 -107
-295 -109 -360 -1 -39 -5 -43 -85 -101 -96 -69 -131 -120 -131 -190 0 -42 39
-133 72 -169 10 -11 18 -23 18 -27 0 -4 18 -15 40 -25 21 -10 42 -24 44 -31 7
-17 -23 -80 -40 -87 -25 -10 -199 68 -245 110 -25 22 -39 16 -39 -16 0 -31 31
-104 50 -115 17 -10 2 -24 -20 -18 -50 13 6 -49 73 -80 31 -15 74 -23 150 -27
4 0 7 -12 7 -27 0 -16 9 -46 19 -68 l18 -40 -86 -23 c-316 -84 -597 -335 -689
-615 -10 -31 -21 -60 -24 -63 -7 -7 -197 -53 -219 -54 -29 0 -37 -24 -40 -114
-3 -71 0 -90 13 -100 13 -9 15 -29 13 -106 -2 -52 -4 -148 -6 -212 -2 -97 -5
-121 -20 -134 -12 -11 -17 -33 -19 -82 0 -37 -1 -78 -2 -92 -1 -48 3 -55 40
-76 34 -19 41 -19 92 -7 30 7 64 15 75 17 32 7 288 66 308 71 31 7 33 12 34
90 1 43 4 79 6 81 11 11 47 -37 47 -62 0 -24 8 -34 43 -53 35 -19 47 -21 70
-12 16 6 40 11 55 11 26 -1 24 -3 -28 -53 -73 -68 -153 -163 -175 -206 -24
-49 -30 -131 -11 -156 15 -20 15 -20 58 3 24 12 65 42 92 66 28 24 70 54 95
67 26 13 48 27 51 30 6 8 168 62 195 65 11 1 34 5 50 8 39 7 165 15 335 21
172 5 302 15 315 23 6 4 42 7 80 8 39 1 84 4 100 8 17 3 55 8 85 12 30 3 84
13 120 21 36 8 76 16 90 18 77 10 291 65 327 84 10 5 43 16 73 26 70 22 252
111 279 136 11 11 24 19 30 19 14 0 109 77 159 129 24 25 52 65 62 87 10 23
27 48 38 56 11 7 30 32 42 55 12 23 29 44 38 47 9 3 78 19 152 36 74 17 144
33 155 35 11 3 30 7 43 9 53 11 62 17 63 44 1 15 2 54 3 87 3 64 -1 88 -14 80
-15 -9 -38 22 -54 75 -9 30 -43 136 -75 235 -56 170 -61 181 -97 206 -28 20
-44 25 -60 19 -11 -5 -36 -11 -55 -14 -19 -3 -69 -14 -111 -24 -43 -11 -78
-16 -78 -12 0 4 11 27 25 52 26 46 71 161 79 200 22 109 27 149 27 221 0 249
-73 462 -235 687 -47 64 -193 210 -251 250 -150 103 -254 146 -454 186 -13 3
-74 6 -135 8 -61 2 -122 6 -136 9 -14 4 -38 8 -55 11 -16 2 -48 7 -70 11 -43
6 -143 13 -147 9z m561 -944 c83 -87 118 -163 125 -277 6 -90 -44 -166 -140
-216 -82 -43 -183 -59 -370 -62 -100 -1 -187 1 -193 4 -6 4 16 19 48 34 64 29
145 103 176 160 11 21 23 37 27 37 5 0 8 5 8 10 0 12 101 188 143 249 16 24
48 61 70 83 44 43 44 43 106 -22z"/>
</g>
</svg>
